<svg width="16" height="16" viewBox="0 0 16 16" fill="none" xmlns="http://www.w3.org/2000/svg">
<path fill-rule="evenodd" clip-rule="evenodd" d="M7.99998 8.93886L11.7555 12.6944C12.0148 12.9537 12.4351 12.9537 12.6944 12.6944C12.9537 12.4351 12.9537 12.0148 12.6944 11.7555L8.93886 7.99997L12.6944 4.24443C12.9537 3.98516 12.9537 3.56481 12.6944 3.30554C12.4351 3.04628 12.0148 3.04628 11.7555 3.30554L7.99998 7.06109L4.24442 3.30553C3.98516 3.04627 3.5648 3.04627 3.30553 3.30553C3.04627 3.5648 3.04627 3.98515 3.30553 4.24442L7.06109 7.99997L3.30553 11.7555C3.04627 12.0148 3.04627 12.4351 3.30553 12.6944C3.5648 12.9537 3.98516 12.9537 4.24442 12.6944L7.99998 8.93886Z" fill="#777C83"/>
</svg>
