<svg width="16" height="16" viewBox="0 0 16 16" fill="none" xmlns="http://www.w3.org/2000/svg">
<path d="M10.25 2.75C10.4489 2.75 10.6397 2.82902 10.7803 2.96967C10.921 3.11032 11 3.30109 11 3.5V12.5C11 12.6989 10.921 12.8897 10.7803 13.0303C10.6397 13.171 10.4489 13.25 10.25 13.25H5.75C5.55109 13.25 5.36032 13.171 5.21967 13.0303C5.07902 12.8897 5 12.6989 5 12.5V3.5C5 3.30109 5.07902 3.11032 5.21967 2.96967C5.36032 2.82902 5.55109 2.75 5.75 2.75H10.25ZM5.75 2C5.35218 2 4.97064 2.15804 4.68934 2.43934C4.40804 2.72064 4.25 3.10218 4.25 3.5V12.5C4.25 12.8978 4.40804 13.2794 4.68934 13.5607C4.97064 13.842 5.35218 14 5.75 14H10.25C10.6478 14 11.0294 13.842 11.3107 13.5607C11.592 13.2794 11.75 12.8978 11.75 12.5V3.5C11.75 3.10218 11.592 2.72064 11.3107 2.43934C11.0294 2.15804 10.6478 2 10.25 2H5.75Z" fill="#39997F"/>
<path d="M8 12.5C8.19891 12.5 8.38968 12.421 8.53033 12.2803C8.67098 12.1397 8.75 11.9489 8.75 11.75C8.75 11.5511 8.67098 11.3603 8.53033 11.2197C8.38968 11.079 8.19891 11 8 11C7.80109 11 7.61032 11.079 7.46967 11.2197C7.32902 11.3603 7.25 11.5511 7.25 11.75C7.25 11.9489 7.32902 12.1397 7.46967 12.2803C7.61032 12.421 7.80109 12.5 8 12.5Z" fill="#39997F"/>
</svg>
