<svg width="17" height="16" viewBox="0 0 17 16" fill="none" xmlns="http://www.w3.org/2000/svg">
<path d="M7.3 4.04878L9.7 4.04878C9.7 3.73828 9.57357 3.4405 9.34853 3.22095C9.12348 3.00139 8.81826 2.87805 8.5 2.87805C8.18174 2.87805 7.87652 3.00139 7.65147 3.22095C7.42643 3.4405 7.3 3.73828 7.3 4.04878ZM6.4 4.04878C6.4 3.77973 6.45432 3.51332 6.55985 3.26475C6.66539 3.01618 6.82007 2.79032 7.01508 2.60007C7.21008 2.40983 7.44158 2.25892 7.69636 2.15595C7.95115 2.05299 8.22422 2 8.5 2C8.77578 2 9.04885 2.05299 9.30363 2.15595C9.55842 2.25892 9.78992 2.40983 9.98492 2.60007C10.1799 2.79032 10.3346 3.01618 10.4401 3.26475C10.5457 3.51332 10.6 3.77973 10.6 4.04878L14.05 4.04878C14.1693 4.04878 14.2838 4.09503 14.3682 4.17737C14.4526 4.2597 14.5 4.37137 14.5 4.4878C14.5 4.60424 14.4526 4.71591 14.3682 4.79824C14.2838 4.88057 14.1693 4.92683 14.05 4.92683L13.258 4.92683L12.556 12.0162C12.5021 12.5594 12.2428 13.0636 11.8286 13.4303C11.4144 13.7971 10.875 14.0002 10.3156 14L6.6844 14C6.12512 14.0001 5.58586 13.7969 5.17177 13.4301C4.75768 13.0634 4.49844 12.5593 4.4446 12.0162L3.742 4.92683L2.95 4.92683C2.83065 4.92683 2.71619 4.88057 2.6318 4.79824C2.54741 4.71591 2.5 4.60424 2.5 4.4878C2.5 4.37137 2.54741 4.2597 2.6318 4.17737C2.71619 4.09503 2.83065 4.04878 2.95 4.04878L6.4 4.04878ZM7.6 6.82927C7.6 6.71283 7.55259 6.60116 7.4682 6.51883C7.38381 6.4365 7.26935 6.39024 7.15 6.39024C7.03065 6.39024 6.91619 6.4365 6.8318 6.51883C6.74741 6.60116 6.7 6.71283 6.7 6.82927L6.7 11.2195C6.7 11.3359 6.74741 11.4476 6.8318 11.5299C6.91619 11.6123 7.03065 11.6585 7.15 11.6585C7.26935 11.6585 7.38381 11.6123 7.4682 11.5299C7.55259 11.4476 7.6 11.3359 7.6 11.2195L7.6 6.82927ZM9.85 6.39024C9.96935 6.39024 10.0838 6.4365 10.1682 6.51883C10.2526 6.60116 10.3 6.71283 10.3 6.82927L10.3 11.2195C10.3 11.3359 10.2526 11.4476 10.1682 11.5299C10.0838 11.6123 9.96935 11.6585 9.85 11.6585C9.73065 11.6585 9.61619 11.6123 9.5318 11.5299C9.44741 11.4476 9.4 11.3359 9.4 11.2195L9.4 6.82927C9.4 6.71283 9.44741 6.60116 9.5318 6.51883C9.61619 6.4365 9.73065 6.39024 9.85 6.39024ZM5.3404 11.9319C5.37276 12.2577 5.52835 12.5601 5.77682 12.7802C6.02529 13.0002 6.34885 13.122 6.6844 13.122L10.3156 13.122C10.6512 13.122 10.9747 13.0002 11.2232 12.7802C11.4717 12.5601 11.6272 12.2577 11.6596 11.9319L12.3544 4.92683L4.6456 4.92683L5.3404 11.9319Z" fill="#39997F"/>
</svg>
