<svg width="16" height="16" viewBox="0 0 16 16" fill="none" xmlns="http://www.w3.org/2000/svg">
<path d="M8.68003 4.12534C8.68003 3.96778 8.61743 3.81667 8.50602 3.70525C8.39461 3.59384 8.2435 3.53125 8.08594 3.53125C7.92837 3.53125 7.77727 3.59384 7.66585 3.70525C7.55444 3.81667 7.49185 3.96778 7.49185 4.12534V7.49185H4.12534C3.96778 7.49185 3.81667 7.55444 3.70525 7.66585C3.59384 7.77727 3.53125 7.92837 3.53125 8.08594C3.53125 8.2435 3.59384 8.39461 3.70525 8.50602C3.81667 8.61743 3.96778 8.68003 4.12534 8.68003H7.49185V12.0465C7.49185 12.2041 7.55444 12.3552 7.66585 12.4666C7.77727 12.578 7.92837 12.6406 8.08594 12.6406C8.2435 12.6406 8.39461 12.578 8.50602 12.4666C8.61743 12.3552 8.68003 12.2041 8.68003 12.0465V8.68003H12.0465C12.2041 8.68003 12.3552 8.61743 12.4666 8.50602C12.578 8.39461 12.6406 8.2435 12.6406 8.08594C12.6406 7.92837 12.578 7.77727 12.4666 7.66585C12.3552 7.55444 12.2041 7.49185 12.0465 7.49185H8.68003V4.12534Z" fill="#B4B9C2"/>
</svg>
