<svg width="20" height="20" viewBox="0 0 20 20" fill="none" xmlns="http://www.w3.org/2000/svg">
<path d="M15.7803 13.5303C16.0732 13.2374 16.0732 12.7626 15.7803 12.4697C15.4874 12.1768 15.0126 12.1768 14.7197 12.4697L13 14.1893L13 4C13 3.58579 12.6642 3.25 12.25 3.25C11.8358 3.25 11.5 3.58579 11.5 4L11.5 15.8189C11.5 16.5539 12.3886 16.922 12.9084 16.4023L15.7803 13.5303Z" fill="#09244B"/>
<path d="M4.21967 6.46967C3.92678 6.76256 3.92678 7.23744 4.21967 7.53033C4.51256 7.82322 4.98744 7.82322 5.28033 7.53033L7 5.81066L7 16C7 16.4142 7.33579 16.75 7.75 16.75C8.16421 16.75 8.5 16.4142 8.5 16L8.5 4.18107C8.5 3.44607 7.61136 3.07798 7.09164 3.5977L4.21967 6.46967Z" fill="#09244B"/>
</svg>
