<svg width="24" height="24" viewBox="0 0 24 24" fill="none" xmlns="http://www.w3.org/2000/svg">
<path d="M11 8.5C11 7.94772 11.4477 7.5 12 7.5C12.5523 7.5 13 7.94772 13 8.5V12.0859L14.8125 13.8983C15.203 14.2889 15.203 14.922 14.8125 15.3125C14.4219 15.7031 13.7888 15.7031 13.3982 15.3125L11.2928 13.2071C11.0941 13.0084 10.9965 12.7468 11 12.4863V8.5Z" fill="#303030"/>
<path fill-rule="evenodd" clip-rule="evenodd" d="M3 6C3 6.94083 3.37198 7.79481 3.97437 8.42277C3.35129 9.6468 3 11.0324 3 12.5C3 15.1343 4.13179 17.5043 5.93563 19.1502L5.29289 19.7929C4.90237 20.1834 4.90237 20.8166 5.29289 21.2071C5.68342 21.5976 6.31658 21.5976 6.70711 21.2071L7.57522 20.339C8.88186 21.0781 10.3917 21.5 12 21.5C13.6083 21.5 15.1181 21.0781 16.4248 20.339L17.2929 21.2071C17.6834 21.5976 18.3166 21.5976 18.7071 21.2071C19.0976 20.8166 19.0976 20.1834 18.7071 19.7929L18.0644 19.1502C19.8682 17.5043 21 15.1343 21 12.5C21 11.0324 20.6487 9.64678 20.0256 8.42274C20.6286 7.7944 20.9999 6.94104 20.9999 6C20.9999 4.067 19.4329 2.5 17.4999 2.5C16.3495 2.5 15.3302 3.0548 14.6926 3.90972C13.8424 3.64349 12.938 3.5 12 3.5C11.062 3.5 10.1575 3.64349 9.30735 3.90972C8.67018 3.05535 7.65054 2.5 6.5 2.5C4.567 2.5 3 4.067 3 6ZM6.5 4.5C5.67157 4.5 5 5.17157 5 6C5 6.23657 5.05454 6.46034 5.15223 6.65953C5.78405 5.91945 6.53375 5.28303 7.37225 4.77935C7.12608 4.60316 6.82483 4.5 6.5 4.5ZM16.6278 4.77935C17.4662 5.283 18.2159 5.91936 18.8476 6.65938C18.9452 6.46015 18.9999 6.2363 18.9999 6C18.9999 5.17157 18.3283 4.5 17.4999 4.5C17.1751 4.5 16.8739 4.60331 16.6278 4.77935ZM5 12.5C5 8.63401 8.13401 5.5 12 5.5C15.866 5.5 19 8.63401 19 12.5C19 16.366 15.866 19.5 12 19.5C8.13401 19.5 5 16.366 5 12.5Z" fill="#303030"/>
</svg>
