<svg width="24" height="24" viewBox="0 0 24 24" fill="none" xmlns="http://www.w3.org/2000/svg">
<path d="M12.9891 6.36413C12.9891 6.13495 12.8981 5.91515 12.736 5.7531C12.574 5.59104 12.3542 5.5 12.125 5.5C11.8958 5.5 11.676 5.59104 11.514 5.7531C11.3519 5.91515 11.2609 6.13495 11.2609 6.36413V11.2609H6.36413C6.13495 11.2609 5.91515 11.3519 5.7531 11.514C5.59104 11.676 5.5 11.8958 5.5 12.125C5.5 12.3542 5.59104 12.574 5.7531 12.736C5.91515 12.8981 6.13495 12.9891 6.36413 12.9891H11.2609V17.8859C11.2609 18.1151 11.3519 18.3348 11.514 18.4969C11.676 18.659 11.8958 18.75 12.125 18.75C12.3542 18.75 12.574 18.659 12.736 18.4969C12.8981 18.3348 12.9891 18.1151 12.9891 17.8859V12.9891H17.8859C18.1151 12.9891 18.3348 12.8981 18.4969 12.736C18.659 12.574 18.75 12.3542 18.75 12.125C18.75 11.8958 18.659 11.676 18.4969 11.514C18.3348 11.3519 18.1151 11.2609 17.8859 11.2609H12.9891V6.36413Z" fill="black"/>
</svg>
