<svg width="24" height="24" viewBox="0 0 24 24" fill="none" xmlns="http://www.w3.org/2000/svg">
<path fill-rule="evenodd" clip-rule="evenodd" d="M19.7232 6.06323L13.2797 2.34289C12.8906 2.11826 12.4493 2 12 2C11.5507 2 11.1094 2.11826 10.7203 2.34289L4.27677 6.06323C3.8877 6.28786 3.56461 6.61094 3.33998 7C3.11535 7.38907 2.99708 7.83041 2.99707 8.27966V15.7203C2.99708 16.1696 3.11535 16.6109 3.33998 17C3.56461 17.3891 3.8877 17.7121 4.27677 17.9368L10.7203 21.6571C11.1094 21.8817 11.5507 22 12 22C12.4493 22 12.8906 21.8817 13.2797 21.6571L19.7232 17.9368C20.1123 17.7121 20.4354 17.3891 20.66 17C20.8846 16.6109 21.0029 16.1696 21.0029 15.7203V8.27966C21.0029 7.83041 20.8846 7.38907 20.66 7C20.4354 6.61094 20.1123 6.28786 19.7232 6.06323ZM5.04459 15.7203V9.16624L10.9762 12.5733V19.4396L5.30052 16.1636C5.22271 16.1187 5.15809 16.0541 5.11317 15.9763C5.06824 15.8985 5.04459 15.8102 5.04459 15.7203ZM13.0238 12.5733L18.9554 9.16624V15.7214L18.9472 15.8115C18.9341 15.8848 18.9052 15.9544 18.8624 16.0154C18.8196 16.0764 18.764 16.1274 18.6995 16.1646L13.0238 19.4417V12.5733ZM9.94287 5.15671L11.7441 4.11707V4.11604C11.8219 4.07112 11.9101 4.04746 12 4.04746C12.0898 4.04746 12.1781 4.07112 12.2559 4.11604L17.9316 7.39309L15.8187 8.61307L9.94287 5.15671ZM8.25054 6.13353L6.06834 7.39309L11.7441 10.6701C11.8219 10.7151 11.9101 10.7387 12 10.7387C12.0898 10.7387 12.1781 10.7151 12.2559 10.6701L14.1266 9.59004L8.25054 6.13353Z" fill="#303030"/>
</svg>
