<svg width="24" height="24" viewBox="0 0 24 24" fill="none" xmlns="http://www.w3.org/2000/svg">
<path d="M4.5 7H6.16667H19.5" stroke="#464852" stroke-width="1.5" stroke-linecap="round" stroke-linejoin="round"/>
<path d="M17.8334 6.99996V18.6666C17.8334 19.1087 17.6578 19.5326 17.3453 19.8451C17.0327 20.1577 16.6088 20.3333 16.1667 20.3333H7.83341C7.39139 20.3333 6.96746 20.1577 6.6549 19.8451C6.34234 19.5326 6.16675 19.1087 6.16675 18.6666V6.99996M8.66675 6.99996V5.33329C8.66675 4.89127 8.84234 4.46734 9.1549 4.15478C9.46746 3.84222 9.89139 3.66663 10.3334 3.66663H13.6667C14.1088 3.66663 14.5327 3.84222 14.8453 4.15478C15.1578 4.46734 15.3334 4.89127 15.3334 5.33329V6.99996" stroke="#464852" stroke-width="1.5" stroke-linecap="round" stroke-linejoin="round"/>
<path d="M10.3333 11.1666V16.1666" stroke="#464852" stroke-width="1.5" stroke-linecap="round" stroke-linejoin="round"/>
<path d="M13.6667 11.1666V16.1666" stroke="#464852" stroke-width="1.5" stroke-linecap="round" stroke-linejoin="round"/>
</svg>
