<svg width="24" height="24" viewBox="0 0 24 24" fill="none" xmlns="http://www.w3.org/2000/svg">
<path d="M15.1048 1.5C15.4664 1.5 15.7652 1.76872 15.8125 2.11736L15.8191 2.21429L15.8185 2.92762L16.532 2.92844C17.7152 2.92884 18.6745 3.88794 18.6749 5.07134L18.6753 10.3916C18.2427 10.1863 17.7588 10.0714 17.2481 10.0714C15.4071 10.0714 13.9148 11.5638 13.9148 13.4048C13.9148 14.3375 14.2978 15.1807 14.9152 15.7857H14.6507C13.1928 15.7857 12.01 16.9668 12.01 18.4257V18.5238C12.01 19.2297 12.2146 19.9363 12.6465 20.552H5.10835C3.92506 20.5518 2.96579 19.5926 2.96548 18.4092L2.96424 5.07161C2.96393 3.8881 3.92325 2.92844 5.10676 2.92844L5.81853 2.92762L5.81906 2.21429C5.81906 1.8198 6.13886 1.5 6.53335 1.5C6.89496 1.5 7.19382 1.76872 7.24111 2.11736L7.24763 2.21429L7.2471 2.92762H10.1061L10.1066 2.21429C10.1066 1.8198 10.4264 1.5 10.8209 1.5C11.1825 1.5 11.4814 1.76872 11.5287 2.11736L11.5352 2.21429L11.5347 2.92762H14.39L14.3905 2.21429C14.3905 1.8198 14.7103 1.5 15.1048 1.5ZM10.3414 14.8333H6.53352L6.4366 14.8399C6.08795 14.8872 5.81924 15.186 5.81924 15.5476C5.81924 15.9092 6.08795 16.2081 6.4366 16.2554L6.53352 16.2619H10.3414L10.4383 16.2554C10.7869 16.2081 11.0557 15.9092 11.0557 15.5476C11.0557 15.186 10.7869 14.8872 10.4383 14.8399L10.3414 14.8333ZM15.1033 7.21429H6.53352L6.4366 7.22081C6.08795 7.2681 5.81924 7.56696 5.81924 7.92857C5.81924 8.29019 6.08795 8.58904 6.4366 8.63634L6.53352 8.64286H15.1033L15.2002 8.63634C15.5488 8.58904 15.8176 8.29019 15.8176 7.92857C15.8176 7.56696 15.5488 7.2681 15.2002 7.22081L15.1033 7.21429ZM5.81952 11.7381C5.81952 12.1326 6.13932 12.4524 6.53381 12.4524H12.2481C12.6426 12.4524 12.9624 12.1326 12.9624 11.7381C12.9624 11.3436 12.6426 11.0238 12.2481 11.0238H6.53381C6.13932 11.0238 5.81952 11.3436 5.81952 11.7381ZM19.629 13.4048C19.629 14.7197 18.5631 15.7857 17.2481 15.7857C15.9331 15.7857 14.8671 14.7197 14.8671 13.4048C14.8671 12.0898 15.9331 11.0238 17.2481 11.0238C18.5631 11.0238 19.629 12.0898 19.629 13.4048ZM21.5338 18.5238C21.5338 20.0062 20.3093 21.5 17.2481 21.5C14.1869 21.5 12.9624 20.0118 12.9624 18.5238V18.4257C12.9624 17.4933 13.7183 16.7381 14.6507 16.7381H19.8455C20.7779 16.7381 21.5338 17.4933 21.5338 18.4257V18.5238Z" fill="#303030"/>
</svg>
