<svg width="24" height="24" viewBox="0 0 24 24" fill="none" xmlns="http://www.w3.org/2000/svg">
<g clip-path="url(#clip0_488_287)">
<path d="M12 16C12.3536 16 12.6927 16.1405 12.9428 16.3905C13.1928 16.6406 13.3333 16.9797 13.3333 17.3333C13.3333 17.687 13.1928 18.0261 12.9428 18.2761C12.6927 18.5262 12.3536 18.6667 12 18.6667C11.6463 18.6667 11.3072 18.5262 11.0572 18.2761C10.8071 18.0261 10.6666 17.687 10.6666 17.3333C10.6666 16.9797 10.8071 16.6406 11.0572 16.3905C11.3072 16.1405 11.6463 16 12 16ZM12 10.6667C12.3536 10.6667 12.6927 10.8071 12.9428 11.0572C13.1928 11.3072 13.3333 11.6464 13.3333 12C13.3333 12.3536 13.1928 12.6928 12.9428 12.9428C12.6927 13.1929 12.3536 13.3333 12 13.3333C11.6463 13.3333 11.3072 13.1929 11.0572 12.9428C10.8071 12.6928 10.6666 12.3536 10.6666 12C10.6666 11.6464 10.8071 11.3072 11.0572 11.0572C11.3072 10.8071 11.6463 10.6667 12 10.6667ZM12 5.33333C12.3536 5.33333 12.6927 5.47381 12.9428 5.72386C13.1928 5.97391 13.3333 6.31305 13.3333 6.66667C13.3333 7.02029 13.1928 7.35943 12.9428 7.60948C12.6927 7.85952 12.3536 8 12 8C11.6463 8 11.3072 7.85952 11.0572 7.60948C10.8071 7.35943 10.6666 7.02029 10.6666 6.66667C10.6666 6.31305 10.8071 5.97391 11.0572 5.72386C11.3072 5.47381 11.6463 5.33333 12 5.33333Z" fill="black"/>
</g>
<defs>
<clipPath id="clip0_488_287">
<rect width="24" height="24" fill="white"/>
</clipPath>
</defs>
</svg>
