<svg width="24" height="24" viewBox="0 0 24 24" fill="none" xmlns="http://www.w3.org/2000/svg">
<path d="M19.6829 11.7561C19.6829 11.5205 19.6727 11.2952 19.6522 11.0596L21.5575 9.61518C21.9673 9.30786 22.08 8.7342 21.8239 8.28347L19.9083 4.9747C19.6522 4.52397 19.099 4.33958 18.6278 4.54446L16.4254 5.47665C16.0463 5.21031 15.6468 4.9747 15.2268 4.78007L14.9298 2.41373C14.8683 1.90154 14.4278 1.51227 13.9156 1.51227H10.0946C9.5722 1.51227 9.13171 1.90154 9.07025 2.41373L8.77318 4.78007C8.35318 4.9747 7.95367 5.21031 7.57464 5.47665L5.37221 4.54446C4.90099 4.33958 4.34782 4.52397 4.09172 4.9747L2.17612 8.29372C1.92002 8.74445 2.0327 9.30786 2.44246 9.62542L4.34782 11.0698C4.32733 11.2952 4.31709 11.5205 4.31709 11.7561C4.31709 11.9918 4.32733 12.2171 4.34782 12.4527L2.44246 13.8971C2.0327 14.2044 1.92002 14.7781 2.17612 15.2288L4.09172 18.5376C4.34782 18.9883 4.90099 19.1727 5.37221 18.9678L7.57464 18.0356C7.95367 18.302 8.35318 18.5376 8.77318 18.7322L9.07025 21.0986C9.13171 21.6108 9.5722 22 10.0844 22H13.9054C14.4176 22 14.858 21.6108 14.9195 21.0986L15.2166 18.7322C15.6366 18.5376 16.0361 18.302 16.4151 18.0356L18.6175 18.9678C19.0888 19.1727 19.6419 18.9883 19.898 18.5376L21.8136 15.2288C22.0697 14.7781 21.9571 14.2147 21.5473 13.8971L19.6419 12.4527C19.6727 12.2171 19.6829 11.9918 19.6829 11.7561ZM12.041 15.3415C10.0639 15.3415 8.45562 13.7332 8.45562 11.7561C8.45562 9.77908 10.0639 8.17079 12.041 8.17079C14.018 8.17079 15.6263 9.77908 15.6263 11.7561C15.6263 13.7332 14.018 15.3415 12.041 15.3415Z" fill="#303030"/>
</svg>
