<svg width="24" height="24" viewBox="0 0 24 24" fill="none" xmlns="http://www.w3.org/2000/svg">
<g clip-path="url(#clip0_1917_4955)">
<path d="M12 22C6.477 22 2 17.523 2 12C2 6.477 6.477 2 12 2C17.523 2 22 6.477 22 12C22 17.523 17.523 22 12 22ZM11.003 16L18.073 8.929L16.659 7.515L11.003 13.172L8.174 10.343L6.76 11.757L11.003 16Z" fill="#C3C8D0"/>
</g>
<rect x="5.33301" y="5.33325" width="13.3333" height="13.3333" fill="#C3C8D0"/>
<path fill-rule="evenodd" clip-rule="evenodd" d="M7.04785 11.9999C7.04785 11.6317 7.34633 11.3333 7.71452 11.3333H16.2859C16.6541 11.3333 16.9526 11.6317 16.9526 11.9999C16.9526 12.3681 16.6541 12.6666 16.2859 12.6666H7.71452C7.34633 12.6666 7.04785 12.3681 7.04785 11.9999Z" fill="white"/>
<defs>
<clipPath id="clip0_1917_4955">
<rect width="24" height="24" fill="white"/>
</clipPath>
</defs>
</svg>
