<svg width="36" height="36" viewBox="0 0 36 36" fill="none" xmlns="http://www.w3.org/2000/svg">
<path d="M14.3 12.6C14.7774 12.6 15.2352 12.4104 15.5728 12.0728C15.9104 11.7352 16.1 11.2774 16.1 10.8C16.1 10.3226 15.9104 9.86477 15.5728 9.52721C15.2352 9.18964 14.7774 9 14.3 9C13.8226 9 13.3648 9.18964 13.0272 9.52721C12.6896 9.86477 12.5 10.3226 12.5 10.8C12.5 11.2774 12.6896 11.7352 13.0272 12.0728C13.3648 12.4104 13.8226 12.6 14.3 12.6ZM14.3 19.8C14.7774 19.8 15.2352 19.6104 15.5728 19.2728C15.9104 18.9352 16.1 18.4774 16.1 18C16.1 17.5226 15.9104 17.0648 15.5728 16.7272C15.2352 16.3896 14.7774 16.2 14.3 16.2C13.8226 16.2 13.3648 16.3896 13.0272 16.7272C12.6896 17.0648 12.5 17.5226 12.5 18C12.5 18.4774 12.6896 18.9352 13.0272 19.2728C13.3648 19.6104 13.8226 19.8 14.3 19.8ZM16.1 25.2C16.1 25.6774 15.9104 26.1352 15.5728 26.4728C15.2352 26.8104 14.7774 27 14.3 27C13.8226 27 13.3648 26.8104 13.0272 26.4728C12.6896 26.1352 12.5 25.6774 12.5 25.2C12.5 24.7226 12.6896 24.2648 13.0272 23.9272C13.3648 23.5896 13.8226 23.4 14.3 23.4C14.7774 23.4 15.2352 23.5896 15.5728 23.9272C15.9104 24.2648 16.1 24.7226 16.1 25.2ZM21.5 12.6C21.9774 12.6 22.4352 12.4104 22.7728 12.0728C23.1104 11.7352 23.3 11.2774 23.3 10.8C23.3 10.3226 23.1104 9.86477 22.7728 9.52721C22.4352 9.18964 21.9774 9 21.5 9C21.0226 9 20.5648 9.18964 20.2272 9.52721C19.8896 9.86477 19.7 10.3226 19.7 10.8C19.7 11.2774 19.8896 11.7352 20.2272 12.0728C20.5648 12.4104 21.0226 12.6 21.5 12.6ZM23.3 18C23.3 18.4774 23.1104 18.9352 22.7728 19.2728C22.4352 19.6104 21.9774 19.8 21.5 19.8C21.0226 19.8 20.5648 19.6104 20.2272 19.2728C19.8896 18.9352 19.7 18.4774 19.7 18C19.7 17.5226 19.8896 17.0648 20.2272 16.7272C20.5648 16.3896 21.0226 16.2 21.5 16.2C21.9774 16.2 22.4352 16.3896 22.7728 16.7272C23.1104 17.0648 23.3 17.5226 23.3 18ZM21.5 27C21.9774 27 22.4352 26.8104 22.7728 26.4728C23.1104 26.1352 23.3 25.6774 23.3 25.2C23.3 24.7226 23.1104 24.2648 22.7728 23.9272C22.4352 23.5896 21.9774 23.4 21.5 23.4C21.0226 23.4 20.5648 23.5896 20.2272 23.9272C19.8896 24.2648 19.7 24.7226 19.7 25.2C19.7 25.6774 19.8896 26.1352 20.2272 26.4728C20.5648 26.8104 21.0226 27 21.5 27Z" fill="black"/>
</svg>
